<svg id="Layer_1" data-name="Layer 1" xmlns="http://www.w3.org/2000/svg" viewBox="0 0 109 50"><defs><style>.cls-1{fill:#1753d9;}</style></defs><path class="cls-1" d="M65.46,0,52.23,50H55.1l3.69-14.28h9.43L71.31,50h8.93L67.42,0Zm-6,33.06,4.41-17.13,3.74,17.13Z"/><path class="cls-1" d="M35.87,0,22.64,50h2.87L29.2,35.72h9.43L41.72,50h8.93L37.83,0Zm-6,33.06L34.3,15.93,38,33.06Z"/><path class="cls-1" d="M92.8.74H82.29V.82A11.09,11.09,0,0,1,84.52,7.5V43.76a9.72,9.72,0,0,1-2.19,6.15V50H95.61v-.07a10.93,10.93,0,0,1-3.11-7.62V27.07l3.12,4.1h.67c8.17,0,12.32-8.58,12.32-16.2C108.61,8,104.66.86,92.8.74Zm-.3,26.17V3h1c5.39,0,7.07,7.53,7.07,12C100.53,20.26,98,26.8,92.5,26.91Z"/><path class="cls-1" d="M22.28,27l.66-2.47H10.57V3.06H15L25.25,16.5h1.41L23.74.78H.39V.84A7.54,7.54,0,0,1,2.58,6.16V43.43A10.68,10.68,0,0,1,.39,49.9V50H13.71v-.1a7.52,7.52,0,0,1-3.14-6.69V27Z"/></svg>